<svg xmlns="http://www.w3.org/2000/svg" xmlns:xlink="http://www.w3.org/1999/xlink" width="1080" zoomAndPan="magnify" viewBox="0 0 810 1439.999935" height="1920" preserveAspectRatio="xMidYMid meet" version="1.0"><defs><clipPath id="53b25ddd5b"><path d="M 357 550 L 695 550 L 695 791 L 357 791 Z M 357 550 " clip-rule="nonzero"/></clipPath><clipPath id="d839efb306"><path d="M 322.691406 659.710938 L 390.484375 506 L 699.96875 642.496094 L 632.175781 796.210938 Z M 322.691406 659.710938 " clip-rule="nonzero"/></clipPath><clipPath id="f3631f5450"><path d="M 322.691406 659.710938 L 390.484375 506 L 699.96875 642.496094 L 632.175781 796.210938 Z M 322.691406 659.710938 " clip-rule="nonzero"/></clipPath><clipPath id="0103040845"><path d="M 355 548 L 697 548 L 697 794 L 355 794 Z M 355 548 " clip-rule="nonzero"/></clipPath><clipPath id="c588bdeceb"><path d="M 322.691406 659.710938 L 390.484375 506 L 699.96875 642.496094 L 632.175781 796.210938 Z M 322.691406 659.710938 " clip-rule="nonzero"/></clipPath><clipPath id="207ef99a5f"><path d="M 322.691406 659.710938 L 390.484375 506 L 699.96875 642.496094 L 632.175781 796.210938 Z M 322.691406 659.710938 " clip-rule="nonzero"/></clipPath><clipPath id="ae0fa671bd"><path d="M 271 650 L 291 650 L 291 717 L 271 717 Z M 271 650 " clip-rule="nonzero"/></clipPath><clipPath id="04d80df8f5"><path d="M 336.835938 548.050781 L 395.976562 580.585938 L 309.9375 736.980469 L 250.796875 704.445312 Z M 336.835938 548.050781 " clip-rule="nonzero"/></clipPath><clipPath id="c8030a178e"><path d="M 336.835938 548.050781 L 395.976562 580.585938 L 309.9375 736.980469 L 250.796875 704.445312 Z M 336.835938 548.050781 " clip-rule="nonzero"/></clipPath><clipPath id="a1b380bb12"><path d="M 278 678 L 309 678 L 309 721 L 278 721 Z M 278 678 " clip-rule="nonzero"/></clipPath><clipPath id="c546677a3f"><path d="M 336.835938 548.050781 L 395.976562 580.585938 L 309.9375 736.980469 L 250.796875 704.445312 Z M 336.835938 548.050781 " clip-rule="nonzero"/></clipPath><clipPath id="267aaa864a"><path d="M 336.835938 548.050781 L 395.976562 580.585938 L 309.9375 736.980469 L 250.796875 704.445312 Z M 336.835938 548.050781 " clip-rule="nonzero"/></clipPath><clipPath id="c4c6577736"><path d="M 288 662 L 317 662 L 317 679 L 288 679 Z M 288 662 " clip-rule="nonzero"/></clipPath><clipPath id="bb1a1c9a3b"><path d="M 336.835938 548.050781 L 395.976562 580.585938 L 309.9375 736.980469 L 250.796875 704.445312 Z M 336.835938 548.050781 " clip-rule="nonzero"/></clipPath><clipPath id="c75e1b43da"><path d="M 336.835938 548.050781 L 395.976562 580.585938 L 309.9375 736.980469 L 250.796875 704.445312 Z M 336.835938 548.050781 " clip-rule="nonzero"/></clipPath><clipPath id="6278e336dc"><path d="M 279 599 L 354 599 L 354 692 L 279 692 Z M 279 599 " clip-rule="nonzero"/></clipPath><clipPath id="8c32b9ca8f"><path d="M 336.835938 548.050781 L 395.976562 580.585938 L 309.9375 736.980469 L 250.796875 704.445312 Z M 336.835938 548.050781 " clip-rule="nonzero"/></clipPath><clipPath id="acdf8823cc"><path d="M 336.835938 548.050781 L 395.976562 580.585938 L 309.9375 736.980469 L 250.796875 704.445312 Z M 336.835938 548.050781 " clip-rule="nonzero"/></clipPath><clipPath id="8b2914e010"><path d="M 318 608 L 347 608 L 347 652 L 318 652 Z M 318 608 " clip-rule="nonzero"/></clipPath><clipPath id="9c9ba243e5"><path d="M 336.835938 548.050781 L 395.976562 580.585938 L 309.9375 736.980469 L 250.796875 704.445312 Z M 336.835938 548.050781 " clip-rule="nonzero"/></clipPath><clipPath id="4849d87592"><path d="M 336.835938 548.050781 L 395.976562 580.585938 L 309.9375 736.980469 L 250.796875 704.445312 Z M 336.835938 548.050781 " clip-rule="nonzero"/></clipPath><clipPath id="f6c38d3f9e"><path d="M 303 590 L 325 590 L 325 635 L 303 635 Z M 303 590 " clip-rule="nonzero"/></clipPath><clipPath id="93551da312"><path d="M 336.835938 548.050781 L 395.976562 580.585938 L 309.9375 736.980469 L 250.796875 704.445312 Z M 336.835938 548.050781 " clip-rule="nonzero"/></clipPath><clipPath id="81b4327151"><path d="M 336.835938 548.050781 L 395.976562 580.585938 L 309.9375 736.980469 L 250.796875 704.445312 Z M 336.835938 548.050781 " clip-rule="nonzero"/></clipPath><clipPath id="f419bc4e9c"><path d="M 320 571 L 373 571 L 373 673 L 320 673 Z M 320 571 " clip-rule="nonzero"/></clipPath><clipPath id="592d492050"><path d="M 336.835938 548.050781 L 395.976562 580.585938 L 309.9375 736.980469 L 250.796875 704.445312 Z M 336.835938 548.050781 " clip-rule="nonzero"/></clipPath><clipPath id="c2367548ff"><path d="M 336.835938 548.050781 L 395.976562 580.585938 L 309.9375 736.980469 L 250.796875 704.445312 Z M 336.835938 548.050781 " clip-rule="nonzero"/></clipPath><clipPath id="04431deb81"><path d="M 336 564 L 384 564 L 384 603 L 336 603 Z M 336 564 " clip-rule="nonzero"/></clipPath><clipPath id="05c35439ec"><path d="M 336.835938 548.050781 L 395.976562 580.585938 L 309.9375 736.980469 L 250.796875 704.445312 Z M 336.835938 548.050781 " clip-rule="nonzero"/></clipPath><clipPath id="d432d785d3"><path d="M 336.835938 548.050781 L 395.976562 580.585938 L 309.9375 736.980469 L 250.796875 704.445312 Z M 336.835938 548.050781 " clip-rule="nonzero"/></clipPath><clipPath id="4a1abb9475"><path d="M 210.621094 663.214844 L 395.871094 663.214844 L 395.871094 843.214844 L 210.621094 843.214844 Z M 210.621094 663.214844 " clip-rule="nonzero"/></clipPath></defs><rect x="-81" width="972" fill="#ffffff" y="-143.999994" height="1727.999922" fill-opacity="1"/><rect x="-81" width="972" fill="#ffffff" y="-143.999994" height="1727.999922" fill-opacity="1"/><g clip-path="url(#53b25ddd5b)"><g clip-path="url(#d839efb306)"><g clip-path="url(#f3631f5450)"><path fill="#ffffff" d="M 382.308594 580.089844 L 371.789062 603.945312 L 365.46875 601.15625 C 358.882812 598.253906 355.894531 590.554688 358.800781 583.96875 C 361.707031 577.382812 369.402344 574.394531 375.988281 577.300781 Z M 414.84375 580.097656 C 414.324219 579.734375 397.238281 572.117188 396.628906 571.847656 C 391.773438 569.707031 386.109375 571.902344 383.96875 576.761719 L 370.445312 607.421875 C 368.304688 612.277344 370.5 617.941406 375.355469 620.082031 C 376.046875 620.386719 393.277344 627.886719 393.984375 628.027344 M 408.789062 550.21875 C 405.945312 556.667969 408.867188 564.203125 415.316406 567.046875 C 408.867188 564.203125 401.332031 567.125 398.488281 573.574219 C 395.644531 580.023438 398.566406 587.558594 405.015625 590.402344 C 398.566406 587.558594 391.03125 590.480469 388.1875 596.929688 C 385.34375 603.378906 388.265625 610.914062 394.714844 613.757812 C 388.265625 610.914062 380.730469 613.835938 377.886719 620.285156 C 375.042969 626.734375 377.964844 634.269531 384.414062 637.113281 C 377.964844 634.269531 370.429688 637.191406 367.585938 643.640625 L 445.167969 657.480469 L 471.003906 598.894531 Z M 605.710938 646.570312 L 571.550781 724.019531 L 571.21875 724.777344 C 583.789062 730.324219 592.871094 742.160156 597.339844 754.632812 L 602.347656 768.636719 C 602.929688 772.480469 605.566406 775.847656 609.308594 777.496094 C 615.152344 780.074219 621.839844 777.730469 624.242188 772.265625 L 676.785156 652.992188 C 679.191406 647.53125 676.410156 641.019531 670.574219 638.445312 L 670.566406 638.441406 C 666.832031 636.792969 662.5625 637.113281 659.332031 639.277344 L 643.144531 646.242188 C 631.609375 651.207031 618.566406 650.609375 606.402344 645.949219 Z M 690.042969 640.667969 C 686.453125 639.085938 682.265625 640.707031 680.683594 644.296875 L 620.394531 780.988281 C 618.8125 784.578125 620.433594 788.765625 624.023438 790.351562 C 627.613281 791.933594 631.800781 790.308594 633.382812 786.71875 L 693.671875 650.027344 C 695.253906 646.4375 693.628906 642.25 690.042969 640.667969 Z M 602.804688 653.15625 L 500.507812 615.660156 L 477.757812 667.25 L 574.421875 717.507812 Z M 502.707031 591.507812 C 498.3125 589.570312 493.183594 591.558594 491.246094 595.949219 L 456.957031 673.703125 C 455.019531 678.09375 457.007812 683.222656 461.398438 685.160156 C 465.792969 687.097656 470.921875 685.109375 472.859375 680.714844 L 507.152344 602.964844 C 509.082031 598.570312 507.09375 593.441406 502.707031 591.507812 Z M 484.503906 589.703125 C 480.109375 587.765625 474.980469 589.757812 473.042969 594.148438 L 443.351562 661.476562 C 441.414062 665.867188 443.402344 670.996094 447.796875 672.933594 C 452.1875 674.871094 457.316406 672.882812 459.253906 668.488281 L 488.945312 601.171875 C 490.886719 596.769531 488.890625 591.640625 484.503906 589.703125 Z M 484.503906 589.703125 " fill-opacity="1" fill-rule="nonzero"/></g></g></g><g clip-path="url(#0103040845)"><g clip-path="url(#c588bdeceb)"><g clip-path="url(#207ef99a5f)"><path fill="#de9151" d="M 428.359375 639.21875 C 429.488281 639.390625 430.273438 640.453125 430.089844 641.585938 C 430.0625 641.773438 430.011719 641.949219 429.941406 642.109375 C 429.570312 642.945312 428.671875 643.460938 427.730469 643.320312 L 405.164062 639.839844 C 404.035156 639.664062 403.25 638.605469 403.433594 637.472656 C 403.609375 636.332031 404.667969 635.558594 405.800781 635.742188 Z M 690.878906 638.769531 C 695.507812 640.8125 697.609375 646.234375 695.570312 650.863281 L 635.28125 787.554688 C 633.238281 792.183594 627.816406 794.289062 623.1875 792.246094 C 618.558594 790.207031 616.457031 784.78125 618.496094 780.152344 L 618.613281 779.886719 C 615.332031 780.996094 611.738281 780.824219 608.476562 779.386719 C 604.179688 777.492188 601.082031 773.585938 600.339844 769.144531 L 595.394531 755.328125 C 590.699219 742.214844 581.355469 731.503906 570.382812 726.667969 C 569.335938 726.203125 568.863281 724.980469 569.324219 723.933594 L 571.746094 718.441406 L 479.613281 670.542969 L 474.757812 681.554688 C 472.359375 686.984375 465.996094 689.453125 460.5625 687.058594 C 455.925781 685.011719 453.460938 680.082031 454.324219 675.308594 C 451.972656 676 449.378906 675.898438 446.957031 674.832031 C 441.527344 672.433594 439.058594 666.070312 441.453125 660.636719 L 442.144531 659.066406 L 367.21875 645.6875 C 366.589844 645.574219 366.054688 645.183594 365.746094 644.621094 C 365.449219 644.066406 365.421875 643.390625 365.679688 642.808594 C 367.867188 637.84375 372.464844 634.679688 377.492188 634.066406 C 375.085938 630.6875 374.144531 626.363281 375.078125 622.191406 C 374.894531 622.117188 374.703125 622.0625 374.519531 621.980469 C 368.632812 619.382812 365.949219 612.472656 368.546875 606.585938 L 369.210938 605.082031 L 364.628906 603.0625 C 357.003906 599.691406 353.539062 590.757812 356.902344 583.132812 C 360.265625 575.507812 369.199219 572.042969 376.824219 575.40625 L 381.410156 577.425781 L 382.070312 575.921875 C 384.667969 570.035156 391.578125 567.355469 397.46875 569.953125 C 397.648438 570.03125 397.824219 570.128906 398 570.222656 C 400.457031 566.710938 404.277344 564.5 408.394531 563.996094 C 405.457031 559.871094 404.695312 554.34375 406.882812 549.378906 C 407.140625 548.796875 407.660156 548.363281 408.28125 548.210938 C 408.898438 548.058594 409.554688 548.191406 410.0625 548.585938 L 470.136719 595.605469 L 471.148438 593.3125 C 473.542969 587.878906 479.90625 585.410156 485.339844 587.808594 C 487.753906 588.871094 489.582031 590.730469 490.660156 592.925781 C 493.609375 589.070312 498.914062 587.566406 503.542969 589.609375 C 508.976562 592.003906 511.445312 598.371094 509.046875 603.800781 L 504.195312 614.804688 L 601.691406 650.542969 L 603.8125 645.734375 C 603.929688 645.46875 604.109375 645.230469 604.324219 645.027344 L 605.015625 644.40625 C 605.597656 643.882812 606.417969 643.738281 607.148438 644.015625 C 619.394531 648.710938 631.890625 648.828125 642.324219 644.339844 L 658.34375 637.445312 C 662.125 635 667.109375 634.648438 671.402344 636.542969 C 674.804688 638.042969 677.320312 640.703125 678.652344 643.785156 L 678.796875 643.457031 C 680.828125 638.832031 686.25 636.730469 690.878906 638.769531 Z M 370.726562 601.210938 L 379.578125 581.148438 L 375.152344 579.199219 C 369.621094 576.757812 363.136719 579.273438 360.699219 584.804688 C 358.257812 590.335938 360.773438 596.820312 366.304688 599.261719 Z M 376.191406 618.1875 C 376.304688 618.238281 376.425781 618.273438 376.550781 618.316406 C 378.90625 614.007812 383.167969 611.273438 387.800781 610.707031 C 384.863281 606.585938 384.101562 601.054688 386.289062 596.09375 C 388.480469 591.128906 393.074219 587.964844 398.101562 587.355469 C 395.394531 583.546875 394.539062 578.558594 396.136719 573.914062 C 396.027344 573.855469 395.914062 573.800781 395.792969 573.746094 C 391.992188 572.070312 387.542969 573.796875 385.867188 577.597656 L 372.34375 608.257812 C 370.667969 612.050781 372.390625 616.511719 376.191406 618.1875 Z M 443.871094 655.160156 L 468.410156 599.519531 L 409.902344 553.71875 C 409.175781 558.382812 411.628906 563.15625 416.152344 565.152344 C 417.199219 565.613281 417.675781 566.835938 417.214844 567.882812 C 416.75 568.929688 415.527344 569.40625 414.480469 568.945312 C 409.085938 566.566406 402.765625 569.015625 400.386719 574.410156 C 398.007812 579.804688 400.457031 586.125 405.851562 588.503906 C 406.898438 588.96875 407.375 590.191406 406.914062 591.238281 C 406.449219 592.285156 405.226562 592.761719 404.179688 592.300781 C 398.785156 589.921875 392.464844 592.371094 390.085938 597.765625 C 387.707031 603.160156 390.15625 609.480469 395.550781 611.859375 C 396.597656 612.320312 397.074219 613.546875 396.613281 614.59375 C 396.148438 615.640625 394.925781 616.117188 393.878906 615.652344 C 388.484375 613.273438 382.164062 615.726562 379.785156 621.121094 C 377.40625 626.515625 379.855469 632.835938 385.25 635.214844 C 386.296875 635.675781 386.773438 636.902344 386.3125 637.949219 C 385.847656 638.996094 384.625 639.472656 383.578125 639.007812 C 379.046875 637.011719 373.859375 638.421875 370.898438 642.128906 Z M 448.632812 671.035156 C 451.96875 672.507812 455.886719 670.992188 457.359375 667.652344 L 487.050781 600.328125 C 488.523438 596.988281 487.003906 593.074219 483.667969 591.601562 C 480.328125 590.128906 476.414062 591.648438 474.941406 594.984375 L 473.03125 599.320312 C 473.003906 599.460938 472.960938 599.605469 472.898438 599.742188 L 447.058594 658.324219 C 447 658.460938 446.917969 658.589844 446.835938 658.707031 L 445.25 662.304688 C 443.773438 665.648438 445.292969 669.566406 448.632812 671.035156 Z M 470.953125 679.875 L 505.246094 602.125 C 506.71875 598.785156 505.199219 594.871094 501.863281 593.398438 C 498.523438 591.925781 494.609375 593.445312 493.136719 596.785156 L 490.835938 601.996094 L 461.144531 669.324219 L 458.84375 674.535156 C 457.371094 677.875 458.890625 681.789062 462.230469 683.261719 C 465.574219 684.738281 469.480469 683.214844 470.953125 679.875 Z M 573.421875 714.644531 L 600.015625 654.347656 L 502.519531 618.605469 L 481.285156 666.75 Z M 622.34375 771.425781 L 674.886719 652.15625 C 676.832031 647.746094 674.519531 642.449219 669.738281 640.339844 C 666.65625 638.980469 663.121094 639.234375 660.484375 641 C 660.378906 641.070312 660.261719 641.128906 660.152344 641.179688 L 643.964844 648.144531 C 632.957031 652.878906 619.945312 652.96875 607.15625 648.433594 L 604.703125 653.992188 L 576.324219 718.335938 L 573.929688 723.761719 C 585.242188 729.433594 594.421875 740.3125 599.296875 753.9375 L 604.304688 767.941406 C 604.347656 768.066406 604.382812 768.199219 604.40625 768.328125 C 604.875 771.453125 607.078125 774.246094 610.144531 775.601562 C 612.488281 776.632812 615.058594 776.75 617.382812 775.9375 C 619.648438 775.140625 621.414062 773.535156 622.34375 771.425781 Z M 689.203125 642.5625 C 686.671875 641.445312 683.695312 642.601562 682.578125 645.132812 L 626.140625 773.101562 C 626.140625 773.101562 626.140625 773.101562 626.136719 773.109375 L 622.289062 781.835938 C 621.167969 784.367188 622.324219 787.34375 624.855469 788.460938 C 627.390625 789.578125 630.367188 788.425781 631.484375 785.890625 L 691.773438 649.199219 C 692.894531 646.65625 691.738281 643.683594 689.203125 642.5625 Z M 689.203125 642.5625 " fill-opacity="1" fill-rule="nonzero"/></g></g></g><g clip-path="url(#ae0fa671bd)"><g clip-path="url(#04d80df8f5)"><g clip-path="url(#c8030a178e)"><path fill="#de9151" d="M 290.585938 650.269531 C 290.191406 650.398438 289.796875 650.527344 289.402344 650.652344 L 288.246094 651.097656 L 287.117188 651.589844 L 286.015625 652.144531 C 284.566406 652.917969 283.210938 653.824219 281.941406 654.867188 C 279.398438 656.941406 277.371094 659.433594 275.859375 662.351562 C 272.921875 668.070312 272.503906 674.996094 274.6875 680.984375 C 275.226562 682.484375 275.941406 683.933594 276.734375 685.347656 C 277.527344 686.761719 278.40625 688.152344 279.292969 689.542969 C 280.179688 690.9375 281.09375 692.335938 281.933594 693.792969 C 282.351562 694.523438 282.765625 695.257812 283.144531 696.015625 C 283.527344 696.773438 283.882812 697.542969 284.203125 698.332031 C 284.863281 699.921875 285.316406 701.5625 285.570312 703.261719 C 285.605469 703.472656 285.621094 703.6875 285.648438 703.898438 L 285.679688 704.222656 L 285.695312 704.542969 C 285.730469 704.972656 285.738281 705.402344 285.722656 705.835938 C 285.695312 706.695312 285.585938 707.546875 285.394531 708.390625 C 285.007812 710.058594 284.308594 711.65625 283.28125 713.007812 C 282.769531 713.6875 282.175781 714.289062 281.507812 714.8125 C 281.171875 715.066406 280.820312 715.296875 280.453125 715.503906 C 280.089844 715.703125 279.710938 715.875 279.316406 716.019531 C 279.683594 715.832031 280.039062 715.621094 280.375 715.386719 C 280.710938 715.148438 281.03125 714.890625 281.328125 714.609375 C 281.925781 714.050781 282.4375 713.421875 282.871094 712.726562 C 283.730469 711.339844 284.28125 709.835938 284.53125 708.222656 C 284.65625 707.429688 284.710938 706.636719 284.6875 705.835938 C 284.679688 705.4375 284.640625 705.042969 284.59375 704.640625 L 284.5625 704.34375 L 284.511719 704.046875 C 284.476562 703.851562 284.453125 703.652344 284.410156 703.457031 L 284.285156 702.871094 C 284.242188 702.675781 284.1875 702.480469 284.140625 702.285156 C 284.113281 702.191406 284.089844 702.09375 284.0625 701.996094 L 283.976562 701.707031 L 283.886719 701.417969 C 283.859375 701.324219 283.832031 701.226562 283.796875 701.132812 L 283.601562 700.566406 C 283.53125 700.375 283.457031 700.191406 283.382812 700.003906 C 283.3125 699.816406 283.234375 699.628906 283.152344 699.445312 C 283.074219 699.257812 283 699.070312 282.914062 698.886719 C 282.230469 697.414062 281.457031 695.984375 280.589844 694.609375 C 279.730469 693.222656 278.804688 691.855469 277.882812 690.472656 C 276.960938 689.09375 276.050781 687.683594 275.207031 686.21875 C 274.359375 684.753906 273.605469 683.21875 273.015625 681.597656 C 270.652344 675.113281 271.265625 667.660156 274.636719 661.699219 C 275.902344 659.472656 277.492188 657.503906 279.402344 655.796875 C 281.3125 654.089844 283.445312 652.730469 285.800781 651.714844 L 286.96875 651.253906 L 288.15625 650.855469 L 289.363281 650.53125 C 289.773438 650.4375 290.179688 650.351562 290.585938 650.269531 Z M 290.585938 650.269531 " fill-opacity="1" fill-rule="nonzero"/></g></g></g><g clip-path="url(#a1b380bb12)"><g clip-path="url(#c546677a3f)"><g clip-path="url(#267aaa864a)"><path fill="#de9151" d="M 278.765625 720.113281 C 279.0625 720.039062 279.359375 719.964844 279.660156 719.894531 L 280.542969 719.664062 L 281.425781 719.425781 L 282.304688 719.171875 C 283.46875 718.820312 284.621094 718.4375 285.753906 718.007812 C 288.015625 717.167969 290.195312 716.148438 292.289062 714.953125 C 292.550781 714.804688 292.804688 714.648438 293.066406 714.496094 C 293.324219 714.347656 293.570312 714.179688 293.824219 714.023438 C 294.078125 713.863281 294.328125 713.691406 294.578125 713.53125 C 294.824219 713.371094 295.066406 713.191406 295.3125 713.023438 C 296.285156 712.335938 297.21875 711.597656 298.113281 710.8125 C 299.007812 710.03125 299.847656 709.195312 300.640625 708.3125 C 301.4375 707.4375 302.171875 706.511719 302.84375 705.535156 C 303.519531 704.570312 304.113281 703.558594 304.632812 702.503906 C 305.15625 701.445312 305.601562 700.355469 305.96875 699.230469 C 306.339844 698.109375 306.632812 696.964844 306.84375 695.800781 C 306.902344 695.507812 306.941406 695.214844 306.988281 694.921875 C 307.035156 694.632812 307.0625 694.335938 307.101562 694.042969 C 307.121094 693.894531 307.132812 693.75 307.140625 693.597656 L 307.183594 693.15625 C 307.199219 693.007812 307.203125 692.863281 307.210938 692.714844 L 307.234375 692.269531 C 307.339844 689.871094 307.074219 687.519531 306.433594 685.207031 C 306.105469 684.046875 305.683594 682.925781 305.15625 681.84375 L 304.742188 681.039062 L 304.285156 680.25 L 303.792969 679.484375 C 303.617188 679.238281 303.441406 678.984375 303.265625 678.734375 C 303.476562 678.953125 303.691406 679.175781 303.902344 679.398438 L 304.503906 680.097656 L 305.066406 680.835938 C 305.238281 681.089844 305.414062 681.34375 305.585938 681.601562 C 306.261719 682.65625 306.816406 683.765625 307.261719 684.929688 C 308.15625 687.265625 308.59375 689.773438 308.632812 692.285156 L 308.632812 692.757812 C 308.632812 692.914062 308.636719 693.074219 308.628906 693.230469 L 308.609375 693.699219 C 308.605469 693.859375 308.601562 694.015625 308.585938 694.171875 L 308.550781 694.640625 C 308.535156 694.800781 308.527344 694.957031 308.503906 695.113281 C 308.46875 695.425781 308.4375 695.738281 308.390625 696.050781 C 308.210938 697.300781 307.941406 698.53125 307.578125 699.738281 C 307.210938 700.949219 306.753906 702.125 306.210938 703.269531 C 305.660156 704.414062 305.023438 705.507812 304.304688 706.550781 C 303.582031 707.585938 302.792969 708.566406 301.9375 709.496094 C 301.085938 710.417969 300.175781 711.285156 299.210938 712.089844 C 298.25 712.894531 297.242188 713.636719 296.191406 714.320312 C 295.925781 714.484375 295.664062 714.65625 295.398438 714.816406 C 295.132812 714.980469 294.867188 715.140625 294.59375 715.296875 C 294.324219 715.449219 294.050781 715.605469 293.777344 715.75 C 293.503906 715.890625 293.226562 716.042969 292.949219 716.179688 C 290.726562 717.296875 288.417969 718.179688 286.019531 718.839844 C 284.828125 719.164062 283.628906 719.4375 282.417969 719.648438 L 281.507812 719.796875 L 280.597656 719.929688 L 279.679688 720.035156 C 279.375 720.0625 279.070312 720.089844 278.765625 720.113281 Z M 278.765625 720.113281 " fill-opacity="1" fill-rule="nonzero"/></g></g></g><g clip-path="url(#c4c6577736)"><g clip-path="url(#bb1a1c9a3b)"><g clip-path="url(#c75e1b43da)"><path fill="#de9151" d="M 292.734375 678.234375 C 292.332031 678.117188 291.953125 677.945312 291.59375 677.726562 C 291.230469 677.503906 290.898438 677.238281 290.597656 676.933594 C 289.988281 676.304688 289.523438 675.582031 289.207031 674.765625 C 288.882812 673.941406 288.707031 673.085938 288.679688 672.203125 C 288.667969 671.753906 288.691406 671.3125 288.761719 670.871094 C 288.824219 670.421875 288.933594 669.984375 289.085938 669.558594 C 289.167969 669.351562 289.246094 669.140625 289.335938 668.9375 L 289.480469 668.636719 L 289.550781 668.488281 L 289.59375 668.410156 L 289.636719 668.335938 L 289.800781 668.046875 C 289.859375 667.953125 289.910156 667.851562 289.976562 667.761719 L 290.164062 667.484375 C 290.226562 667.394531 290.285156 667.296875 290.359375 667.210938 C 290.894531 666.503906 291.511719 665.871094 292.210938 665.320312 C 292.898438 664.773438 293.636719 664.300781 294.421875 663.910156 C 295.207031 663.519531 296.015625 663.207031 296.855469 662.964844 C 297.683594 662.734375 298.523438 662.5625 299.375 662.445312 C 300.214844 662.335938 301.054688 662.269531 301.902344 662.246094 C 302.742188 662.226562 303.578125 662.230469 304.40625 662.261719 C 304.820312 662.277344 305.230469 662.296875 305.644531 662.316406 L 306.875 662.394531 C 308.507812 662.507812 310.167969 662.636719 311.808594 662.941406 C 312.628906 663.089844 313.4375 663.289062 314.234375 663.542969 C 315.027344 663.792969 315.789062 664.117188 316.523438 664.511719 C 315.730469 664.300781 314.933594 664.136719 314.121094 664.027344 C 313.320312 663.914062 312.515625 663.84375 311.703125 663.8125 C 310.089844 663.734375 308.472656 663.769531 306.835938 663.796875 L 305.609375 663.8125 C 305.199219 663.816406 304.792969 663.820312 304.390625 663.832031 C 303.582031 663.851562 302.777344 663.875 301.980469 663.933594 C 301.183594 663.992188 300.394531 664.0625 299.621094 664.1875 C 298.847656 664.296875 298.085938 664.460938 297.335938 664.675781 C 296.597656 664.882812 295.878906 665.152344 295.1875 665.484375 C 294.496094 665.808594 293.84375 666.199219 293.226562 666.648438 C 292.617188 667.097656 292.066406 667.605469 291.574219 668.183594 C 291.511719 668.25 291.457031 668.328125 291.398438 668.398438 L 291.226562 668.621094 C 291.113281 668.769531 291.019531 668.929688 290.910156 669.082031 L 290.871094 669.140625 L 290.835938 669.203125 L 290.769531 669.324219 L 290.628906 669.566406 C 290.539062 669.730469 290.464844 669.902344 290.382812 670.070312 C 289.777344 671.402344 289.664062 673 290.03125 674.496094 C 290.21875 675.257812 290.53125 675.964844 290.976562 676.613281 C 291.441406 677.289062 292.027344 677.828125 292.734375 678.234375 Z M 292.734375 678.234375 " fill-opacity="1" fill-rule="nonzero"/></g></g></g><g clip-path="url(#6278e336dc)"><g clip-path="url(#8c32b9ca8f)"><g clip-path="url(#acdf8823cc)"><path fill="#de9151" d="M 317.199219 625.425781 C 317.277344 623.417969 317.378906 621.40625 317.570312 619.402344 C 317.761719 617.394531 318.054688 615.386719 318.535156 613.40625 C 318.664062 612.914062 318.777344 612.414062 318.933594 611.925781 C 319.007812 611.683594 319.074219 611.433594 319.152344 611.191406 L 319.40625 610.464844 C 319.449219 610.34375 319.488281 610.222656 319.53125 610.101562 L 319.675781 609.742188 L 319.960938 609.023438 L 320.285156 608.320312 L 320.445312 607.96875 C 320.5 607.851562 320.5625 607.738281 320.621094 607.621094 L 320.980469 606.933594 C 321.039062 606.816406 321.109375 606.703125 321.179688 606.59375 L 321.382812 606.253906 C 321.453125 606.144531 321.515625 606.023438 321.589844 605.917969 L 321.8125 605.59375 C 321.964844 605.378906 322.109375 605.15625 322.277344 604.953125 L 322.527344 604.640625 C 322.609375 604.539062 322.6875 604.429688 322.777344 604.332031 L 323.308594 603.738281 L 323.878906 603.179688 C 323.972656 603.082031 324.078125 603 324.179688 602.910156 L 324.484375 602.648438 C 326.179688 601.25 328.097656 600.3125 330.242188 599.835938 C 331.304688 599.597656 332.378906 599.484375 333.464844 599.496094 C 334.550781 599.503906 335.625 599.625 336.683594 599.855469 C 337.746094 600.085938 338.773438 600.421875 339.769531 600.855469 C 340.761719 601.289062 341.707031 601.816406 342.597656 602.433594 C 343.492188 603.050781 344.328125 603.738281 345.101562 604.503906 L 345.660156 605.089844 C 345.757812 605.1875 345.839844 605.292969 345.929688 605.390625 L 346.191406 605.691406 L 346.449219 605.996094 C 346.539062 606.097656 346.613281 606.207031 346.699219 606.3125 L 347.1875 606.941406 L 347.648438 607.59375 C 347.722656 607.703125 347.804688 607.808594 347.875 607.921875 L 348.089844 608.257812 L 348.300781 608.589844 C 348.375 608.703125 348.449219 608.8125 348.511719 608.929688 L 348.910156 609.617188 C 349.429688 610.539062 349.898438 611.488281 350.3125 612.460938 L 350.46875 612.824219 C 350.519531 612.945312 350.5625 613.070312 350.613281 613.191406 L 350.898438 613.929688 L 351.152344 614.675781 L 351.28125 615.050781 L 351.398438 615.429688 C 351.472656 615.679688 351.554688 615.929688 351.628906 616.179688 L 351.835938 616.941406 C 351.867188 617.066406 351.90625 617.195312 351.933594 617.320312 L 352.027344 617.707031 C 352.089844 617.960938 352.152344 618.214844 352.207031 618.472656 C 352.652344 620.523438 352.925781 622.59375 353.027344 624.691406 C 353.085938 625.738281 353.085938 626.78125 353.0625 627.828125 C 353.042969 628.351562 353.027344 628.875 352.988281 629.394531 C 352.96875 629.65625 352.957031 629.917969 352.929688 630.175781 L 352.855469 630.957031 C 352.738281 632 352.597656 633.042969 352.386719 634.074219 L 352.3125 634.460938 C 352.289062 634.589844 352.257812 634.71875 352.230469 634.847656 L 352.054688 635.617188 C 351.921875 636.128906 351.800781 636.644531 351.644531 637.152344 L 351.535156 637.53125 C 351.5 637.660156 351.460938 637.785156 351.417969 637.914062 L 351.167969 638.667969 C 351.082031 638.921875 350.984375 639.167969 350.894531 639.417969 L 350.753906 639.792969 L 350.601562 640.164062 C 350.203125 641.148438 349.75 642.113281 349.242188 643.050781 C 347.199219 646.84375 344.5 650.085938 341.140625 652.78125 L 340.515625 653.277344 L 339.867188 653.75 C 339.65625 653.910156 339.433594 654.058594 339.210938 654.207031 C 338.988281 654.355469 338.773438 654.511719 338.546875 654.652344 L 337.871094 655.078125 C 337.644531 655.21875 337.410156 655.347656 337.183594 655.484375 C 337.066406 655.550781 336.953125 655.621094 336.835938 655.683594 L 336.484375 655.875 L 336.132812 656.0625 L 335.953125 656.15625 L 335.777344 656.246094 L 335.058594 656.597656 C 334.816406 656.710938 334.570312 656.816406 334.328125 656.929688 C 334.203125 656.980469 334.082031 657.039062 333.960938 657.089844 L 333.589844 657.238281 L 333.214844 657.386719 L 333.03125 657.464844 L 332.839844 657.53125 L 332.082031 657.800781 C 331.832031 657.886719 331.574219 657.964844 331.320312 658.046875 C 331.195312 658.089844 331.0625 658.128906 330.933594 658.164062 L 330.546875 658.273438 L 330.160156 658.378906 L 329.964844 658.433594 L 329.769531 658.476562 L 328.988281 658.65625 C 328.722656 658.714844 328.460938 658.757812 328.195312 658.808594 C 328.0625 658.832031 327.933594 658.863281 327.800781 658.882812 L 327.003906 659 L 326.804688 659.03125 L 326.601562 659.050781 L 325.800781 659.136719 C 325.53125 659.160156 325.265625 659.175781 324.996094 659.195312 C 324.859375 659.203125 324.726562 659.214844 324.59375 659.21875 L 324.191406 659.226562 L 323.390625 659.238281 C 323.125 659.242188 322.859375 659.230469 322.589844 659.222656 C 322.320312 659.214844 322.058594 659.210938 321.796875 659.191406 L 321.007812 659.136719 L 320.613281 659.113281 L 320.222656 659.074219 L 319.441406 658.988281 C 319.308594 658.976562 319.179688 658.960938 319.050781 658.941406 L 318.664062 658.886719 L 317.886719 658.777344 L 317.121094 658.648438 C 315.082031 658.300781 313.085938 657.839844 311.128906 657.371094 C 309.171875 656.90625 307.238281 656.425781 305.316406 656.027344 C 304.835938 655.929688 304.355469 655.835938 303.878906 655.742188 C 303.402344 655.648438 302.925781 655.578125 302.449219 655.511719 C 301.496094 655.375 300.539062 655.273438 299.578125 655.214844 C 298.621094 655.15625 297.664062 655.140625 296.714844 655.171875 C 295.765625 655.207031 294.824219 655.296875 293.886719 655.445312 C 292.960938 655.589844 292.050781 655.796875 291.15625 656.070312 C 290.273438 656.347656 289.417969 656.699219 288.601562 657.128906 C 287.785156 657.554688 287.027344 658.0625 286.324219 658.652344 C 286.238281 658.726562 286.144531 658.792969 286.0625 658.875 L 285.8125 659.105469 L 285.683594 659.222656 L 285.566406 659.34375 L 285.324219 659.585938 C 285.007812 659.914062 284.710938 660.261719 284.433594 660.628906 C 284.15625 660.992188 283.894531 661.375 283.660156 661.769531 L 283.484375 662.066406 L 283.402344 662.21875 L 283.316406 662.375 L 283.152344 662.683594 L 283.003906 663 C 282.605469 663.851562 282.292969 664.730469 282.058594 665.640625 C 281.585938 667.503906 281.417969 669.398438 281.542969 671.316406 C 281.601562 672.28125 281.730469 673.234375 281.925781 674.179688 C 281.972656 674.417969 282.03125 674.652344 282.085938 674.886719 C 282.136719 675.121094 282.203125 675.355469 282.273438 675.585938 L 282.375 675.933594 C 282.410156 676.054688 282.449219 676.164062 282.488281 676.28125 L 282.714844 676.972656 C 283.367188 678.816406 284.257812 680.582031 285.273438 682.277344 C 286.328125 683.96875 287.484375 685.585938 288.753906 687.121094 C 290.019531 688.667969 291.375 690.152344 292.757812 691.609375 C 291.234375 690.300781 289.757812 688.929688 288.351562 687.480469 C 286.9375 686.023438 285.636719 684.46875 284.449219 682.824219 L 284.015625 682.191406 L 283.796875 681.875 L 283.59375 681.554688 L 283.183594 680.90625 C 283.050781 680.6875 282.929688 680.460938 282.800781 680.238281 C 282.535156 679.800781 282.308594 679.339844 282.070312 678.882812 L 281.980469 678.710938 L 281.902344 678.535156 L 281.738281 678.1875 L 281.578125 677.835938 C 281.523438 677.71875 281.464844 677.601562 281.421875 677.480469 C 281.226562 677.003906 281.019531 676.53125 280.855469 676.035156 C 280.765625 675.792969 280.691406 675.539062 280.609375 675.292969 C 280.527344 675.046875 280.457031 674.792969 280.394531 674.542969 C 280.121094 673.53125 279.925781 672.507812 279.800781 671.46875 C 279.550781 669.359375 279.632812 667.261719 280.046875 665.175781 C 280.261719 664.121094 280.574219 663.101562 280.984375 662.109375 L 281.140625 661.734375 L 281.398438 661.183594 L 281.679688 660.644531 C 281.9375 660.167969 282.222656 659.703125 282.535156 659.257812 C 282.847656 658.804688 283.179688 658.375 283.539062 657.960938 C 283.902344 657.550781 284.285156 657.160156 284.691406 656.792969 C 285.503906 656.054688 286.386719 655.414062 287.335938 654.867188 C 288.28125 654.328125 289.265625 653.875 290.289062 653.511719 C 291.304688 653.160156 292.339844 652.882812 293.394531 652.683594 C 294.4375 652.488281 295.492188 652.359375 296.550781 652.292969 C 297.605469 652.222656 298.65625 652.207031 299.707031 652.238281 C 300.753906 652.273438 301.796875 652.359375 302.832031 652.480469 C 303.351562 652.539062 303.867188 652.613281 304.378906 652.691406 C 304.894531 652.769531 305.394531 652.859375 305.902344 652.949219 C 309.9375 653.675781 313.8125 654.738281 317.65625 655.324219 C 319.574219 655.613281 321.484375 655.808594 323.367188 655.785156 C 324.304688 655.773438 325.234375 655.707031 326.164062 655.589844 L 326.335938 655.570312 L 326.507812 655.542969 L 326.855469 655.488281 L 327.199219 655.433594 C 327.3125 655.414062 327.429688 655.390625 327.542969 655.367188 C 327.769531 655.320312 327.996094 655.277344 328.226562 655.226562 L 328.910156 655.0625 L 329.078125 655.023438 L 329.246094 654.972656 L 329.585938 654.878906 L 329.921875 654.785156 C 330.035156 654.753906 330.144531 654.710938 330.257812 654.675781 C 330.480469 654.605469 330.703125 654.535156 330.925781 654.460938 L 331.585938 654.214844 L 331.75 654.15625 L 331.914062 654.089844 L 332.238281 653.953125 L 332.566406 653.820312 C 332.671875 653.78125 332.777344 653.726562 332.886719 653.679688 C 333.101562 653.582031 333.316406 653.488281 333.527344 653.386719 L 334.15625 653.074219 L 334.316406 652.996094 L 334.472656 652.910156 L 334.78125 652.742188 L 335.09375 652.574219 C 335.195312 652.519531 335.296875 652.457031 335.394531 652.394531 C 335.597656 652.277344 335.800781 652.160156 336.003906 652.039062 L 336.601562 651.65625 C 336.800781 651.535156 336.992188 651.394531 337.1875 651.261719 C 337.382812 651.132812 337.578125 650.996094 337.765625 650.855469 L 338.335938 650.433594 L 338.894531 649.996094 C 340.371094 648.808594 341.722656 647.488281 342.9375 646.035156 C 343.550781 645.3125 344.121094 644.5625 344.65625 643.78125 C 345.191406 643 345.683594 642.195312 346.136719 641.367188 C 346.589844 640.539062 347 639.691406 347.359375 638.820312 C 347.726562 637.949219 348.046875 637.0625 348.320312 636.15625 C 348.464844 635.703125 348.578125 635.242188 348.707031 634.785156 L 348.871094 634.089844 C 348.898438 633.972656 348.925781 633.855469 348.953125 633.738281 L 349.023438 633.390625 C 349.222656 632.457031 349.371094 631.507812 349.492188 630.558594 L 349.578125 629.84375 C 349.605469 629.605469 349.617188 629.367188 349.640625 629.128906 C 349.691406 628.648438 349.710938 628.171875 349.738281 627.691406 C 349.773438 626.730469 349.792969 625.769531 349.753906 624.808594 C 349.691406 622.886719 349.484375 620.980469 349.125 619.089844 C 349.082031 618.851562 349.027344 618.617188 348.980469 618.382812 L 348.90625 618.03125 C 348.878906 617.917969 348.851562 617.796875 348.824219 617.683594 L 348.652344 616.980469 L 348.460938 616.289062 L 348.363281 615.945312 L 348.253906 615.601562 L 348.035156 614.921875 L 347.796875 614.246094 C 347.757812 614.136719 347.71875 614.019531 347.679688 613.910156 L 347.546875 613.578125 C 347.203125 612.691406 346.8125 611.828125 346.371094 610.984375 L 346.03125 610.359375 C 345.976562 610.253906 345.914062 610.152344 345.855469 610.050781 L 345.671875 609.75 L 345.488281 609.445312 C 345.429688 609.34375 345.359375 609.25 345.296875 609.148438 L 344.910156 608.558594 L 344.496094 607.988281 C 344.425781 607.894531 344.359375 607.796875 344.285156 607.703125 L 344.066406 607.429688 L 343.84375 607.15625 C 343.773438 607.0625 343.695312 606.972656 343.621094 606.886719 L 343.160156 606.367188 C 342.527344 605.691406 341.839844 605.074219 341.097656 604.519531 C 339.597656 603.398438 337.945312 602.59375 336.132812 602.113281 C 334.320312 601.621094 332.484375 601.53125 330.632812 601.839844 C 329.714844 601.996094 328.824219 602.257812 327.96875 602.621094 C 327.109375 602.988281 326.300781 603.453125 325.546875 604.007812 L 325.265625 604.222656 C 325.175781 604.292969 325.078125 604.359375 324.992188 604.441406 L 324.460938 604.902344 L 323.957031 605.402344 C 323.871094 605.484375 323.796875 605.574219 323.710938 605.660156 L 323.476562 605.925781 C 323.3125 606.101562 323.171875 606.292969 323.027344 606.480469 L 322.804688 606.761719 C 322.730469 606.855469 322.667969 606.957031 322.597656 607.054688 L 322.398438 607.351562 C 322.332031 607.449219 322.257812 607.542969 322.199219 607.648438 L 321.820312 608.269531 C 321.761719 608.375 321.691406 608.476562 321.632812 608.582031 L 321.457031 608.902344 L 321.113281 609.546875 L 320.796875 610.210938 L 320.640625 610.542969 C 320.589844 610.65625 320.542969 610.769531 320.496094 610.882812 L 320.210938 611.558594 C 320.121094 611.789062 320.039062 612.019531 319.953125 612.25 C 319.769531 612.710938 319.625 613.183594 319.46875 613.652344 C 319.429688 613.769531 319.394531 613.886719 319.359375 614.003906 L 319.253906 614.363281 C 319.1875 614.601562 319.109375 614.835938 319.050781 615.078125 C 318.929688 615.558594 318.796875 616.039062 318.6875 616.523438 L 318.519531 617.253906 L 318.371094 617.980469 L 318.296875 618.347656 L 318.226562 618.714844 L 318.089844 619.449219 C 317.75 621.445312 317.480469 623.433594 317.199219 625.425781 Z M 317.199219 625.425781 " fill-opacity="1" fill-rule="nonzero"/></g></g></g><g clip-path="url(#8b2914e010)"><g clip-path="url(#9c9ba243e5)"><g clip-path="url(#4849d87592)"><path fill="#de9151" d="M 318.46875 651.050781 L 319.71875 650.996094 C 320.136719 650.957031 320.550781 650.929688 320.964844 650.882812 L 321.585938 650.804688 L 321.894531 650.765625 L 322.046875 650.75 L 322.203125 650.722656 L 322.816406 650.617188 C 323.019531 650.582031 323.226562 650.550781 323.425781 650.503906 C 325.050781 650.171875 326.632812 649.703125 328.171875 649.09375 C 331.25 647.886719 334.011719 646.164062 336.453125 643.933594 C 336.761719 643.667969 337.042969 643.371094 337.332031 643.085938 L 337.550781 642.875 C 337.621094 642.800781 337.6875 642.722656 337.757812 642.648438 L 338.171875 642.199219 L 338.375 641.976562 L 338.574219 641.742188 L 338.964844 641.277344 C 339.097656 641.125 339.222656 640.960938 339.34375 640.800781 L 339.710938 640.316406 C 340.683594 639.015625 341.535156 637.632812 342.257812 636.179688 C 342.976562 634.722656 343.558594 633.214844 344.003906 631.65625 C 344.449219 630.097656 344.742188 628.515625 344.878906 626.902344 C 344.902344 626.703125 344.90625 626.5 344.921875 626.300781 C 344.9375 626.101562 344.949219 625.898438 344.949219 625.699219 L 344.960938 625.097656 L 344.953125 624.496094 C 344.949219 624.394531 344.953125 624.292969 344.945312 624.195312 L 344.929688 623.894531 C 344.914062 623.695312 344.910156 623.492188 344.890625 623.292969 L 344.832031 622.695312 C 344.816406 622.496094 344.777344 622.300781 344.753906 622.101562 C 344.707031 621.703125 344.621094 621.316406 344.554688 620.921875 C 344.460938 620.535156 344.382812 620.144531 344.265625 619.761719 L 344.183594 619.476562 L 344.144531 619.332031 C 344.128906 619.285156 344.113281 619.238281 344.097656 619.191406 L 343.90625 618.628906 C 343.84375 618.441406 343.761719 618.257812 343.691406 618.074219 L 343.582031 617.796875 C 343.542969 617.707031 343.5 617.617188 343.460938 617.527344 C 343.140625 616.800781 342.761719 616.109375 342.328125 615.449219 C 341.890625 614.792969 341.398438 614.179688 340.851562 613.613281 C 340.578125 613.328125 340.289062 613.0625 339.992188 612.800781 C 339.695312 612.542969 339.378906 612.300781 339.058594 612.070312 C 338.414062 611.609375 337.734375 611.210938 337.015625 610.878906 C 336.925781 610.835938 336.835938 610.796875 336.742188 610.757812 C 336.652344 610.722656 336.5625 610.679688 336.472656 610.644531 C 336.285156 610.574219 336.101562 610.5 335.914062 610.441406 C 335.726562 610.378906 335.539062 610.320312 335.351562 610.257812 C 335.164062 610.199219 334.972656 610.152344 334.777344 610.113281 C 334.394531 610.023438 334.007812 609.957031 333.613281 609.914062 C 333.222656 609.871094 332.828125 609.851562 332.433594 609.851562 C 332.039062 609.855469 331.644531 609.878906 331.253906 609.933594 C 330.863281 609.984375 330.480469 610.066406 330.101562 610.167969 C 329.71875 610.277344 329.347656 610.410156 328.980469 610.566406 C 327.074219 611.398438 325.582031 612.703125 324.503906 614.480469 C 324.078125 615.1875 323.761719 615.9375 323.558594 616.734375 C 323.457031 617.136719 323.386719 617.542969 323.34375 617.957031 C 323.332031 618.164062 323.320312 618.371094 323.320312 618.578125 C 323.320312 618.785156 323.328125 618.992188 323.335938 619.203125 C 323.257812 618.789062 323.214844 618.371094 323.207031 617.949219 C 323.203125 617.523438 323.234375 617.101562 323.296875 616.679688 C 323.433594 615.832031 323.695312 615.019531 324.074219 614.246094 C 324.859375 612.660156 325.984375 611.371094 327.449219 610.375 L 327.722656 610.191406 L 328.003906 610.023438 C 328.097656 609.964844 328.191406 609.910156 328.289062 609.859375 C 328.386719 609.808594 328.480469 609.753906 328.578125 609.703125 C 328.972656 609.507812 329.375 609.332031 329.792969 609.1875 C 330.210938 609.042969 330.640625 608.929688 331.078125 608.84375 C 331.511719 608.765625 331.949219 608.710938 332.390625 608.683594 C 332.835938 608.65625 333.277344 608.65625 333.71875 608.6875 C 334.160156 608.714844 334.597656 608.769531 335.035156 608.847656 C 335.253906 608.882812 335.46875 608.9375 335.683594 608.984375 C 335.898438 609.03125 336.113281 609.089844 336.324219 609.15625 C 336.746094 609.28125 337.164062 609.429688 337.570312 609.597656 C 338.386719 609.9375 339.164062 610.355469 339.902344 610.84375 C 340.269531 611.085938 340.625 611.351562 340.96875 611.625 C 341.3125 611.902344 341.640625 612.199219 341.957031 612.507812 C 342.59375 613.125 343.167969 613.800781 343.675781 614.53125 C 344.175781 615.257812 344.613281 616.023438 344.988281 616.824219 C 345.035156 616.921875 345.085938 617.019531 345.128906 617.121094 L 345.257812 617.425781 L 345.382812 617.730469 C 345.429688 617.832031 345.472656 617.933594 345.503906 618.035156 L 345.722656 618.660156 C 345.742188 618.710938 345.761719 618.761719 345.777344 618.8125 L 345.824219 618.972656 L 345.917969 619.285156 C 346.050781 619.703125 346.140625 620.132812 346.25 620.558594 C 346.332031 620.988281 346.429688 621.414062 346.484375 621.847656 L 346.53125 622.171875 C 346.546875 622.28125 346.566406 622.386719 346.574219 622.496094 L 346.640625 623.148438 C 346.664062 623.363281 346.667969 623.582031 346.6875 623.800781 L 346.710938 624.128906 C 346.71875 624.234375 346.714844 624.34375 346.71875 624.453125 L 346.730469 625.105469 L 346.71875 625.757812 C 346.71875 625.972656 346.703125 626.191406 346.691406 626.40625 L 346.671875 626.730469 C 346.667969 626.839844 346.660156 626.949219 346.648438 627.054688 C 346.574219 627.917969 346.453125 628.777344 346.289062 629.628906 L 346.234375 629.949219 L 346.160156 630.261719 L 346.015625 630.894531 C 345.992188 631 345.972656 631.105469 345.945312 631.210938 L 345.855469 631.523438 L 345.683594 632.148438 C 344.699219 635.492188 343.125 638.535156 340.957031 641.265625 L 340.546875 641.765625 C 340.410156 641.933594 340.277344 642.101562 340.128906 642.257812 L 339.699219 642.738281 L 339.484375 642.980469 L 339.257812 643.207031 L 338.800781 643.667969 C 338.726562 643.742188 338.652344 643.820312 338.574219 643.894531 L 338.339844 644.113281 C 338.019531 644.402344 337.710938 644.703125 337.378906 644.972656 C 335.410156 646.632812 333.246094 647.976562 330.882812 649 C 328.523438 650.023438 326.0625 650.683594 323.503906 650.984375 C 323.296875 651.015625 323.085938 651.027344 322.875 651.042969 L 322.246094 651.09375 L 322.085938 651.109375 L 321.929688 651.117188 L 321.613281 651.125 L 320.984375 651.148438 C 320.5625 651.152344 320.140625 651.136719 319.722656 651.132812 C 319.304688 651.113281 318.882812 651.082031 318.46875 651.050781 Z M 318.46875 651.050781 " fill-opacity="1" fill-rule="nonzero"/></g></g></g><g clip-path="url(#f6c38d3f9e)"><g clip-path="url(#93551da312)"><g clip-path="url(#81b4327151)"><path fill="#de9151" d="M 324.40625 590.777344 C 320.070312 592.289062 316.277344 594.664062 313.027344 597.90625 C 309.867188 601.054688 307.421875 604.894531 306.046875 609.09375 C 304.667969 613.289062 304.363281 617.832031 305.046875 622.238281 C 305.746094 626.777344 307.394531 630.9375 309.988281 634.722656 C 309.1875 633.890625 308.457031 633 307.796875 632.054688 C 307.128906 631.105469 306.53125 630.113281 306.003906 629.078125 C 304.9375 626.984375 304.160156 624.789062 303.671875 622.496094 L 303.503906 621.632812 L 303.359375 620.765625 L 303.242188 619.890625 L 303.15625 619.011719 C 302.957031 616.652344 303.070312 614.304688 303.488281 611.972656 C 304.132812 608.4375 305.457031 605.175781 307.453125 602.1875 C 308.105469 601.207031 308.820312 600.269531 309.59375 599.382812 L 310.183594 598.730469 L 310.792969 598.09375 L 311.421875 597.480469 L 312.070312 596.886719 C 313.824219 595.324219 315.75 594.019531 317.847656 592.964844 C 318.886719 592.441406 319.957031 591.996094 321.054688 591.625 C 322.148438 591.253906 323.265625 590.972656 324.40625 590.777344 Z M 324.40625 590.777344 " fill-opacity="1" fill-rule="nonzero"/></g></g></g><g clip-path="url(#f419bc4e9c)"><g clip-path="url(#592d492050)"><g clip-path="url(#c2367548ff)"><path fill="#de9151" d="M 368.511719 592.902344 C 369.148438 592.347656 369.703125 591.722656 370.179688 591.027344 C 370.644531 590.339844 371.023438 589.605469 371.316406 588.828125 C 371.605469 588.058594 371.804688 587.265625 371.921875 586.449219 C 372.035156 585.640625 372.066406 584.832031 372.007812 584.015625 C 371.953125 583.210938 371.8125 582.421875 371.585938 581.648438 L 371.5 581.363281 L 371.402344 581.078125 L 371.355469 580.9375 L 371.300781 580.800781 L 371.1875 580.523438 C 371.035156 580.160156 370.859375 579.808594 370.660156 579.464844 C 370.464844 579.125 370.25 578.796875 370.015625 578.480469 C 369.542969 577.851562 369.003906 577.28125 368.402344 576.773438 C 368.25 576.648438 368.101562 576.519531 367.945312 576.40625 L 367.707031 576.230469 L 367.464844 576.0625 C 366.15625 575.171875 364.726562 574.5625 363.175781 574.234375 C 362.414062 574.070312 361.644531 573.976562 360.867188 573.953125 C 360.097656 573.929688 359.332031 573.980469 358.570312 574.109375 C 357.816406 574.242188 357.082031 574.445312 356.371094 574.722656 C 355.65625 575.003906 354.972656 575.34375 354.324219 575.75 C 353.671875 576.160156 353.0625 576.621094 352.492188 577.132812 C 351.921875 577.648438 351.394531 578.207031 350.910156 578.804688 C 349.945312 580.011719 349.191406 581.335938 348.65625 582.785156 C 348.390625 583.5 348.1875 584.230469 348.046875 584.976562 C 347.902344 585.730469 347.8125 586.488281 347.785156 587.257812 C 347.734375 588.816406 347.875 590.355469 348.214844 591.875 C 348.554688 593.429688 349.035156 594.9375 349.648438 596.40625 C 350.273438 597.898438 350.984375 599.347656 351.78125 600.753906 C 352.179688 601.464844 352.597656 602.167969 353.03125 602.863281 C 353.460938 603.558594 353.914062 604.253906 354.371094 604.949219 C 355.289062 606.339844 356.234375 607.730469 357.175781 609.144531 C 358.117188 610.5625 359.050781 612.007812 359.925781 613.5 C 360.820312 615.011719 361.625 616.570312 362.339844 618.171875 C 363.066406 619.8125 363.644531 621.507812 364.074219 623.25 C 364.488281 625.007812 364.730469 626.792969 364.789062 628.597656 C 364.84375 630.394531 364.730469 632.175781 364.449219 633.949219 C 363.902344 637.476562 362.753906 640.863281 361.183594 644.003906 C 360.402344 645.574219 359.519531 647.085938 358.535156 648.539062 C 357.554688 649.984375 356.488281 651.367188 355.34375 652.683594 C 354.199219 654 352.980469 655.238281 351.679688 656.394531 L 350.699219 657.242188 L 350.210938 657.667969 C 350.046875 657.808594 349.875 657.9375 349.707031 658.074219 C 349.027344 658.613281 348.359375 659.160156 347.660156 659.648438 L 346.617188 660.410156 C 346.265625 660.65625 345.90625 660.890625 345.550781 661.132812 L 345.015625 661.492188 C 344.839844 661.609375 344.664062 661.734375 344.480469 661.84375 L 343.390625 662.523438 L 342.84375 662.859375 C 342.664062 662.972656 342.476562 663.078125 342.292969 663.1875 L 341.183594 663.828125 C 340.816406 664.046875 340.4375 664.242188 340.0625 664.449219 L 338.9375 665.054688 C 335.917969 666.640625 332.824219 668.027344 329.691406 669.3125 C 326.5625 670.597656 323.398438 671.78125 320.21875 672.917969 C 323.242188 671.417969 326.28125 669.949219 329.277344 668.414062 C 329.652344 668.222656 330.027344 668.03125 330.398438 667.835938 L 331.515625 667.25 C 332.261719 666.863281 332.996094 666.453125 333.730469 666.054688 C 334.101562 665.851562 334.464844 665.644531 334.828125 665.441406 L 335.921875 664.824219 C 336.28125 664.617188 336.640625 664.398438 337 664.183594 C 337.359375 663.972656 337.71875 663.757812 338.074219 663.539062 L 339.136719 662.875 C 339.488281 662.652344 339.847656 662.4375 340.191406 662.203125 L 341.230469 661.511719 C 341.40625 661.394531 341.582031 661.285156 341.75 661.164062 L 342.257812 660.804688 L 343.277344 660.085938 C 343.449219 659.96875 343.613281 659.839844 343.777344 659.714844 L 344.273438 659.339844 C 344.601562 659.089844 344.9375 658.84375 345.261719 658.589844 L 346.226562 657.808594 C 346.875 657.296875 347.480469 656.738281 348.105469 656.199219 C 348.261719 656.0625 348.421875 655.933594 348.570312 655.789062 L 349.015625 655.363281 L 349.914062 654.515625 C 352.253906 652.222656 354.292969 649.6875 356.035156 646.914062 C 356.148438 646.746094 356.25 646.570312 356.355469 646.394531 L 356.667969 645.875 C 356.875 645.523438 357.070312 645.171875 357.269531 644.816406 L 357.554688 644.28125 C 357.652344 644.101562 357.75 643.925781 357.832031 643.742188 L 358.101562 643.195312 L 358.234375 642.925781 L 358.359375 642.648438 C 359.035156 641.183594 359.613281 639.683594 360.085938 638.140625 C 360.558594 636.613281 360.898438 635.054688 361.113281 633.46875 C 361.328125 631.898438 361.402344 630.320312 361.335938 628.734375 C 361.265625 627.164062 361.039062 625.613281 360.660156 624.082031 C 360.269531 622.546875 359.75 621.054688 359.097656 619.609375 C 358.433594 618.128906 357.6875 616.695312 356.859375 615.304688 C 355.207031 612.476562 353.285156 609.734375 351.433594 606.867188 C 350.511719 605.433594 349.589844 603.953125 348.765625 602.421875 C 347.917969 600.882812 347.171875 599.292969 346.53125 597.65625 C 345.871094 595.988281 345.367188 594.277344 345.019531 592.519531 C 344.664062 590.722656 344.546875 588.910156 344.664062 587.082031 C 344.730469 586.164062 344.859375 585.253906 345.058594 584.351562 C 345.105469 584.128906 345.167969 583.90625 345.222656 583.675781 C 345.277344 583.445312 345.34375 583.226562 345.417969 583.007812 C 345.492188 582.785156 345.558594 582.566406 345.640625 582.347656 C 345.722656 582.132812 345.804688 581.914062 345.894531 581.703125 C 346.601562 579.984375 347.566406 578.425781 348.78125 577.019531 C 349.382812 576.324219 350.039062 575.683594 350.75 575.097656 C 351.464844 574.515625 352.226562 573.996094 353.027344 573.542969 C 353.832031 573.089844 354.667969 572.714844 355.539062 572.414062 C 356.417969 572.121094 357.320312 571.921875 358.242188 571.8125 C 360.070312 571.601562 361.871094 571.746094 363.644531 572.238281 C 365.417969 572.734375 367.035156 573.542969 368.492188 574.664062 L 368.757812 574.875 L 369.015625 575.097656 C 369.1875 575.242188 369.347656 575.402344 369.515625 575.554688 C 370.160156 576.1875 370.734375 576.886719 371.230469 577.644531 C 371.472656 578.023438 371.691406 578.417969 371.886719 578.828125 C 372.078125 579.230469 372.25 579.640625 372.394531 580.066406 L 372.492188 580.386719 L 372.542969 580.542969 L 372.585938 580.707031 L 372.671875 581.03125 C 372.699219 581.140625 372.71875 581.25 372.742188 581.355469 C 372.929688 582.222656 373.011719 583.101562 372.996094 583.988281 C 372.972656 585.761719 372.578125 587.441406 371.808594 589.039062 C 371.761719 589.136719 371.710938 589.230469 371.660156 589.324219 C 371.609375 589.421875 371.554688 589.515625 371.503906 589.609375 L 371.339844 589.886719 L 371.257812 590.027344 L 371.167969 590.160156 L 370.988281 590.429688 L 370.800781 590.691406 C 370.679688 590.867188 370.535156 591.027344 370.402344 591.195312 C 369.847656 591.847656 369.21875 592.417969 368.511719 592.902344 Z M 368.511719 592.902344 " fill-opacity="1" fill-rule="nonzero"/></g></g></g><g clip-path="url(#04431deb81)"><g clip-path="url(#05c35439ec)"><g clip-path="url(#d432d785d3)"><path fill="#de9151" d="M 364.421875 602.746094 C 365.441406 602.828125 366.457031 602.808594 367.46875 602.683594 C 368.476562 602.558594 369.457031 602.339844 370.421875 602.027344 C 371.375 601.707031 372.296875 601.3125 373.183594 600.839844 C 374.953125 599.878906 376.503906 598.648438 377.839844 597.140625 C 379.164062 595.652344 380.167969 593.96875 380.847656 592.09375 C 381.179688 591.167969 381.433594 590.222656 381.609375 589.253906 C 382.292969 585.382812 381.683594 581.308594 379.972656 577.796875 C 379.863281 577.582031 379.757812 577.359375 379.640625 577.148438 L 379.464844 576.828125 L 379.28125 576.511719 C 379.160156 576.296875 379.023438 576.097656 378.898438 575.890625 C 378.769531 575.679688 378.617188 575.488281 378.480469 575.289062 L 378.269531 574.988281 C 378.234375 574.9375 378.203125 574.886719 378.164062 574.839844 L 378.050781 574.695312 L 377.589844 574.121094 C 377.441406 573.925781 377.269531 573.75 377.109375 573.570312 C 376.949219 573.386719 376.785156 573.203125 376.613281 573.027344 C 375.238281 571.617188 373.699219 570.414062 371.992188 569.425781 C 368.511719 567.414062 364.757812 566.410156 360.738281 566.414062 C 358.75 566.421875 356.792969 566.652344 354.859375 567.113281 L 354.140625 567.296875 L 353.78125 567.394531 L 353.425781 567.503906 L 352.714844 567.71875 C 352.480469 567.800781 352.246094 567.886719 352.011719 567.96875 C 351.539062 568.125 351.082031 568.320312 350.621094 568.503906 C 350.386719 568.59375 350.164062 568.703125 349.9375 568.804688 C 349.710938 568.90625 349.484375 569.007812 349.257812 569.117188 C 347.457031 569.992188 345.769531 571.046875 344.183594 572.273438 C 343.398438 572.894531 342.652344 573.558594 341.949219 574.269531 C 341.242188 574.980469 340.589844 575.738281 339.980469 576.53125 C 339.371094 577.332031 338.820312 578.167969 338.335938 579.046875 C 337.851562 579.929688 337.441406 580.847656 337.109375 581.796875 C 336.777344 582.753906 336.542969 583.734375 336.40625 584.734375 C 336.273438 585.746094 336.246094 586.761719 336.328125 587.78125 C 336.148438 586.765625 336.085938 585.742188 336.136719 584.710938 C 336.203125 583.675781 336.367188 582.65625 336.636719 581.652344 C 337.175781 579.644531 338.109375 577.753906 339.269531 576.023438 C 339.859375 575.160156 340.5 574.339844 341.195312 573.5625 C 341.898438 572.785156 342.644531 572.058594 343.433594 571.375 C 343.832031 571.035156 344.238281 570.699219 344.65625 570.390625 C 345.078125 570.082031 345.496094 569.765625 345.933594 569.480469 C 346.152344 569.339844 346.367188 569.1875 346.585938 569.050781 L 347.253906 568.640625 L 347.589844 568.4375 L 347.933594 568.25 L 348.621094 567.871094 C 350.488281 566.894531 352.441406 566.136719 354.472656 565.59375 C 354.730469 565.523438 354.984375 565.46875 355.242188 565.40625 L 355.625 565.3125 C 355.691406 565.300781 355.753906 565.28125 355.820312 565.269531 L 356.011719 565.234375 C 356.53125 565.136719 357.046875 565.03125 357.570312 564.972656 C 357.832031 564.941406 358.089844 564.902344 358.351562 564.871094 L 359.144531 564.800781 L 359.539062 564.765625 L 359.933594 564.75 L 360.726562 564.722656 C 362.855469 564.699219 364.953125 564.949219 367.019531 565.476562 C 367.273438 565.542969 367.527344 565.625 367.785156 565.695312 L 368.167969 565.804688 C 368.230469 565.824219 368.292969 565.839844 368.355469 565.863281 L 368.542969 565.929688 C 369.042969 566.105469 369.542969 566.277344 370.03125 566.484375 C 370.28125 566.589844 370.523438 566.6875 370.765625 566.792969 L 371.84375 567.308594 L 372.191406 567.5 L 372.890625 567.886719 C 373.125 568.015625 373.347656 568.167969 373.574219 568.304688 L 373.910156 568.515625 C 373.96875 568.550781 374.023438 568.585938 374.082031 568.621094 L 374.242188 568.738281 C 374.675781 569.042969 375.121094 569.339844 375.527344 569.679688 C 375.742188 569.847656 375.949219 570.003906 376.152344 570.175781 L 376.746094 570.707031 L 377.046875 570.972656 L 377.328125 571.253906 L 377.894531 571.816406 C 378.078125 572.011719 378.246094 572.214844 378.425781 572.414062 C 378.601562 572.613281 378.785156 572.808594 378.941406 573.023438 L 379.433594 573.652344 L 379.558594 573.8125 C 379.597656 573.863281 379.632812 573.921875 379.671875 573.976562 L 379.894531 574.300781 C 380.046875 574.523438 380.199219 574.742188 380.34375 574.964844 C 380.488281 575.1875 380.628906 575.417969 380.757812 575.652344 L 380.957031 576 L 381.140625 576.355469 C 381.269531 576.589844 381.378906 576.832031 381.496094 577.070312 C 381.945312 578.039062 382.320312 579.035156 382.613281 580.0625 C 383.203125 582.121094 383.453125 584.21875 383.371094 586.359375 C 383.328125 587.421875 383.195312 588.476562 382.980469 589.515625 C 382.761719 590.558594 382.449219 591.570312 382.050781 592.554688 C 381.648438 593.539062 381.160156 594.476562 380.578125 595.367188 C 379.996094 596.253906 379.335938 597.074219 378.597656 597.835938 C 377.859375 598.585938 377.0625 599.269531 376.207031 599.878906 C 375.347656 600.480469 374.445312 601.003906 373.496094 601.449219 C 372.550781 601.886719 371.574219 602.234375 370.5625 602.492188 C 369.554688 602.742188 368.535156 602.894531 367.496094 602.945312 C 366.464844 602.988281 365.441406 602.921875 364.421875 602.746094 Z M 364.421875 602.746094 " fill-opacity="1" fill-rule="nonzero"/></g></g></g><g clip-path="url(#4a1abb9475)"><path fill="#de9151" d="M 383.945312 751.851562 C 382.980469 752.078125 376.878906 753.460938 368.972656 754.371094 L 368.972656 734.324219 C 368.972656 728.0625 363.863281 722.953125 357.601562 722.953125 L 322.617188 722.953125 C 316.355469 722.953125 311.246094 728.0625 311.246094 734.324219 L 311.246094 750.625 C 306.804688 750.277344 302.292969 749.980469 297.832031 749.75 L 278.800781 730.71875 C 274.375 726.277344 267.148438 726.292969 262.726562 730.71875 L 241.4375 752.007812 C 233.234375 753.285156 227.234375 754.703125 223.996094 755.542969 L 216.160156 668.484375 L 390.625 668.484375 Z M 316.496094 751.0625 L 316.496094 734.324219 C 316.496094 730.949219 319.242188 728.203125 322.617188 728.203125 L 357.601562 728.203125 C 360.976562 728.203125 363.722656 730.949219 363.722656 734.324219 L 363.722656 754.859375 C 357.878906 755.296875 351.546875 755.332031 345.742188 754.472656 C 337.625 753.25 327.359375 752.027344 316.496094 751.0625 Z M 344.972656 759.652344 C 351.09375 760.578125 357.6875 760.5625 363.722656 760.140625 L 363.722656 769.308594 C 363.722656 772.683594 360.976562 775.429688 357.601562 775.429688 L 322.617188 775.429688 C 319.242188 775.429688 316.496094 772.683594 316.496094 769.308594 L 316.496094 756.347656 C 327.078125 757.289062 337.046875 758.480469 344.972656 759.652344 Z M 241.316406 838.15625 C 241.769531 830.476562 246.949219 824.40625 253.226562 824.40625 L 355.273438 824.40625 C 361.554688 824.40625 366.730469 830.476562 367.1875 838.15625 Z M 250.027344 750.851562 L 266.433594 734.429688 C 267.640625 733.238281 269.195312 732.644531 270.769531 732.644531 C 272.328125 732.644531 273.902344 733.238281 275.089844 734.429688 L 290.0625 749.402344 C 286.25 749.277344 282.492188 749.191406 278.886719 749.191406 L 278.78125 749.191406 C 267.917969 749.191406 258.210938 749.890625 250.027344 750.851562 Z M 278.78125 754.441406 L 278.886719 754.441406 C 284.1875 754.441406 289.820312 754.597656 295.539062 754.878906 L 299.824219 759.160156 C 300.996094 760.316406 301.625 761.855469 301.625 763.5 C 301.625 765.125 300.996094 766.664062 299.824219 767.820312 L 275.089844 792.554688 C 272.710938 794.949219 268.828125 794.949219 266.433594 792.554688 L 241.699219 767.820312 C 240.542969 766.664062 239.914062 765.125 239.914062 763.5 C 239.914062 761.855469 240.542969 760.316406 241.699219 759.160156 L 243.886719 756.976562 C 253.15625 755.613281 265.050781 754.441406 278.78125 754.441406 Z M 395.382812 664.074219 C 394.894531 663.535156 394.195312 663.234375 393.460938 663.234375 L 213.292969 663.234375 C 212.558594 663.234375 211.859375 663.550781 211.351562 664.09375 C 210.859375 664.636719 210.617188 665.351562 210.6875 666.085938 L 226.429688 841.007812 C 226.550781 842.371094 227.671875 843.402344 229.035156 843.402344 L 379.464844 843.402344 C 380.832031 843.402344 381.96875 842.355469 382.089844 840.988281 L 396.082031 666.070312 C 396.136719 665.335938 395.890625 664.617188 395.382812 664.074219 " fill-opacity="1" fill-rule="nonzero"/></g></svg>